<svg xmlns="http://www.w3.org/2000/svg" viewBox="0 0 333 90"><g id="2a92c150-6251-4a95-865f-037fc0bbb877" fill="#fff"><path d="M1.45 10.65L1.45 10.65L1.45 10.65Q1.16 10.58 0.88 10.52L0.88 10.52L0.88 10.52Q0.59 10.47 0.59 10.33L0.59 10.33L0.59 10.33Q0.59 10.19 0.68 10.08L0.68 10.08L0.68 10.08Q0.77 9.97 0.96 9.91L0.96 9.91L0.96 9.91Q1.14 9.84 1.33 9.80L1.33 9.80L1.33 9.80Q1.52 9.76 1.80 9.75L1.80 9.75L1.80 9.75Q2.21 9.72 2.78 9.72L2.78 9.72L3.97 9.72L3.97 9.72Q6.20 9.72 7.25 9.97L7.25 9.97L7.25 9.97Q8.34 10.21 8.84 10.69L8.84 10.69L8.84 10.69Q9.45 11.28 9.45 12.21L9.45 12.21L9.45 12.21Q9.45 13.58 8.63 14.26L8.63 14.26L8.63 14.26Q8.05 14.72 7.49 14.88L7.49 14.88L7.49 14.88Q6.92 15.03 6.54 15.10L6.54 15.10L6.54 15.10Q6.15 15.16 5.64 15.20L5.64 15.20L5.64 15.20Q4.85 15.26 3.71 15.26L3.71 15.26L3.27 15.26L3.27 18.14L3.27 18.14Q3.27 18.27 3.56 18.36L3.56 18.36L3.56 18.36Q3.84 18.44 4.13 18.52L4.13 18.52L4.13 18.52Q4.41 18.60 4.41 18.70L4.41 18.70L4.41 18.70Q4.41 18.93 4.30 19.06L4.30 19.06L4.30 19.06Q4.19 19.20 3.90 19.25L3.90 19.25L3.90 19.25Q3.53 19.31 2.52 19.31L2.52 19.31L2.52 19.31Q1.50 19.31 1.29 19.28L1.29 19.28L1.29 19.28Q0.59 19.20 0.59 18.77L0.59 18.77L0.59 18.77Q0.59 18.46 1.16 18.44L1.16 18.44L1.16 18.44Q1.73 18.42 1.73 18.14L1.73 18.14L1.73 10.88L1.73 10.88Q1.73 10.72 1.45 10.65ZM7.91 12.63L7.91 12.63L7.91 12.63Q7.91 10.53 4.70 10.53L4.70 10.53L4.40 10.53L4.40 10.53Q3.77 10.53 3.60 10.66L3.60 10.66L3.60 10.66Q3.41 10.79 3.38 10.86L3.38 10.86L3.38 10.86Q3.36 10.94 3.32 11.03L3.32 11.03L3.32 11.03Q3.27 11.18 3.27 11.50L3.27 11.50L3.27 14.44L3.27 14.44Q3.52 14.46 4.09 14.46L4.09 14.46L4.09 14.46Q4.66 14.46 5.12 14.43L5.12 14.43L5.12 14.43Q5.58 14.40 6.03 14.33L6.03 14.33L6.03 14.33Q6.48 14.25 6.81 14.12L6.81 14.12L6.81 14.12Q7.14 13.98 7.40 13.78L7.40 13.78L7.40 13.78Q7.91 13.38 7.91 12.63ZM10.92 10.74L10.92 10.74L10.92 10.74Q10.92 10.44 11.21 10.18L11.21 10.18L11.21 10.18Q11.50 9.91 11.84 9.91L11.84 9.91L11.84 9.91Q12.19 9.91 12.51 10.12L12.51 10.12L12.51 10.12Q12.84 10.34 12.84 10.68L12.84 10.68L12.84 10.68Q12.84 11.03 12.56 11.27L12.56 11.27L12.56 11.27Q12.29 11.50 11.89 11.50L11.89 11.50L11.89 11.50Q11.50 11.50 11.21 11.29L11.21 11.29L11.21 11.29Q10.92 11.07 10.92 10.74ZM12.35 19.32L12.35 19.32L11.76 19.33L11.76 19.33Q10.86 19.33 10.65 19.05L10.65 19.05L10.65 19.05Q10.55 18.93 10.55 18.75L10.55 18.75L10.55 18.75Q10.55 18.58 10.69 18.51L10.69 18.51L10.69 18.51Q10.83 18.44 11.00 18.44L11.00 18.44L11.00 18.44Q11.16 18.43 11.30 18.33L11.30 18.33L11.30 18.33Q11.44 18.23 11.44 18.01L11.44 18.01L11.44 14.33L11.44 14.33Q11.44 13.71 10.95 13.67L10.95 13.67L10.95 13.67Q10.90 13.66 10.83 13.65L10.83 13.65L10.83 13.65Q10.75 13.64 10.72 13.64L10.72 13.64L10.72 13.64Q10.68 13.64 10.63 13.63L10.63 13.63L10.63 13.63Q10.58 13.62 10.56 13.60L10.56 13.60L10.56 13.60Q10.53 13.59 10.51 13.57L10.51 13.57L10.51 13.57Q10.46 13.54 10.46 13.37L10.46 13.37L10.46 13.37Q10.46 13.21 10.66 13.04L10.66 13.04L10.66 13.04Q11.05 12.73 11.70 12.73L11.70 12.73L11.70 12.73Q12.30 12.73 12.41 12.78L12.41 12.78L12.41 12.78Q12.52 12.82 12.59 12.88L12.59 12.88L12.59 12.88Q12.74 12.97 12.74 13.24L12.74 13.24L12.74 18.01L12.74 18.01Q12.74 18.41 13.18 18.43L13.18 18.43L13.18 18.43Q13.62 18.46 13.62 18.79L13.62 18.79L13.62 18.79Q13.62 19.16 13.21 19.25L13.21 19.25L13.21 19.25Q12.89 19.32 12.35 19.32ZM18.50 10.47L18.50 10.47L18.50 10.47Q17.67 10.47 17.20 10.68L17.20 10.68L17.20 10.68Q16.34 11.08 16.34 11.73L16.34 11.73L16.34 11.73Q16.34 12.08 16.54 12.28L16.54 12.28L16.54 12.28Q17.06 12.84 17.92 13.22L17.92 13.22L17.92 13.22Q18.43 13.45 19.40 13.80L19.40 13.80L19.40 13.80Q20.38 14.16 20.72 14.31L20.72 14.31L20.72 14.31Q21.06 14.47 21.48 14.74L21.48 14.74L21.48 14.74Q21.90 15.00 22.18 15.29L22.18 15.29L22.18 15.29Q22.83 15.98 22.83 16.87L22.83 16.87L22.83 16.87Q22.83 17.51 22.49 18.02L22.49 18.02L22.49 18.02Q22.14 18.53 21.57 18.84L21.57 18.84L21.57 18.84Q20.38 19.48 18.87 19.48L18.87 19.48L18.87 19.48Q16.84 19.48 15.54 18.77L15.54 18.77L15.54 18.77Q15.11 18.53 14.84 18.16L14.84 18.16L14.84 18.16Q14.57 17.78 14.57 17.35L14.57 17.35L14.57 17.35Q14.57 16.93 14.83 16.68L14.83 16.68L14.83 16.68Q15.09 16.43 15.57 16.43L15.57 16.43L15.57 16.43Q16.05 16.43 16.32 16.77L16.32 16.77L16.32 16.77Q16.59 17.10 16.59 17.64L16.59 17.64L16.59 17.64Q16.59 17.86 16.55 18.10L16.55 18.10L16.55 18.10Q17.59 18.63 18.77 18.63L18.77 18.63L18.77 18.63Q19.82 18.63 20.56 18.32L20.56 18.32L20.56 18.32Q21.40 17.96 21.40 17.06L21.40 17.06L21.40 17.06Q21.40 16.13 19.52 15.41L19.52 15.41L19.52 15.41Q19.21 15.29 18.55 15.07L18.55 15.07L18.55 15.07Q17.21 14.60 16.54 14.25L16.54 14.25L16.54 14.25Q14.88 13.37 14.88 12.05L14.88 12.05L14.88 12.05Q14.88 11.43 15.21 10.94L15.21 10.94L15.21 10.94Q15.54 10.46 16.11 10.18L16.11 10.18L16.11 10.18Q17.24 9.62 18.76 9.62L18.76 9.62L18.76 9.62Q20.54 9.62 21.64 10.21L21.64 10.21L21.64 10.21Q22.03 10.42 22.27 10.76L22.27 10.76L22.27 10.76Q22.51 11.10 22.51 11.53L22.51 11.53L22.51 11.53Q22.51 11.96 22.21 12.23L22.21 12.23L22.21 12.23Q21.92 12.51 21.48 12.51L21.48 12.51L21.48 12.51Q21.04 12.51 20.84 12.47L20.84 12.47L20.84 12.47Q20.75 11.27 20.28 10.87L20.28 10.87L20.28 10.87Q19.80 10.47 18.50 10.47ZM25.42 19.32L25.42 19.32L24.83 19.33L24.83 19.33Q23.93 19.33 23.72 19.05L23.72 19.05L23.72 19.05Q23.63 18.93 23.63 18.75L23.63 18.75L23.63 18.75Q23.63 18.58 23.76 18.51L23.76 18.51L23.76 18.51Q23.90 18.44 24.06 18.44L24.06 18.44L24.06 18.44Q24.23 18.43 24.36 18.33L24.36 18.33L24.36 18.33Q24.50 18.23 24.50 18.01L24.50 18.01L24.50 10.79L24.50 10.79Q24.50 10.17 24.01 10.12L24.01 10.12L24.01 10.12Q23.96 10.12 23.88 10.11L23.88 10.11L23.88 10.11Q23.81 10.10 23.78 10.10L23.78 10.10L23.78 10.10Q23.74 10.10 23.69 10.09L23.69 10.09L23.69 10.09Q23.64 10.08 23.61 10.06L23.61 10.06L23.61 10.06Q23.59 10.05 23.57 10.03L23.57 10.03L23.57 10.03Q23.52 9.99 23.52 9.83L23.52 9.83L23.52 9.83Q23.52 9.67 23.73 9.50L23.73 9.50L23.73 9.50Q24.12 9.19 24.77 9.19L24.77 9.19L24.77 9.19Q25.46 9.19 25.57 9.27L25.57 9.27L25.57 9.27Q25.81 9.43 25.81 9.70L25.81 9.70L25.81 18.01L25.81 18.01Q25.81 18.41 26.25 18.43L26.25 18.43L26.25 18.43Q26.69 18.46 26.69 18.79L26.69 18.79L26.69 18.79Q26.69 19.16 26.28 19.25L26.28 19.25L26.28 19.25Q25.96 19.32 25.42 19.32ZM28.35 18.57L28.35 18.57L28.35 18.57Q27.40 17.64 27.40 16.11L27.40 16.11L27.40 16.11Q27.40 14.57 28.35 13.61L28.35 13.61L28.35 13.61Q29.31 12.65 30.78 12.65L30.78 12.65L30.78 12.65Q31.95 12.65 32.75 13.40L32.75 13.40L32.75 13.40Q33.56 14.16 33.56 15.30L33.56 15.30L33.56 15.30Q33.56 15.85 32.68 15.85L32.68 15.85L28.72 15.85L28.72 15.85Q28.74 16.96 29.44 17.72L29.44 17.72L29.44 17.72Q30.15 18.48 31.22 18.48L31.22 18.48L31.22 18.48Q31.93 18.48 32.60 18.06L32.60 18.06L32.60 18.06Q32.96 17.84 33.06 17.84L33.06 17.84L33.06 17.84Q33.15 17.84 33.28 17.94L33.28 17.94L33.28 17.94Q33.41 18.04 33.41 18.18L33.41 18.18L33.41 18.18Q33.41 18.56 32.93 18.88L32.93 18.88L32.93 18.88Q32.44 19.20 31.86 19.35L31.86 19.35L31.86 19.35Q31.28 19.50 30.84 19.50L30.84 19.50L30.84 19.50Q29.29 19.50 28.35 18.57ZM32.30 15.13L32.30 15.13L32.30 15.13Q32.29 14.35 31.89 13.86L31.89 13.86L31.89 13.86Q31.49 13.36 30.73 13.36L30.73 13.36L30.73 13.36Q29.97 13.36 29.40 13.91L29.40 13.91L29.40 13.91Q28.83 14.46 28.79 15.16L28.79 15.16L30.39 15.16L30.39 15.16Q31.46 15.16 32.30 15.13ZM35.15 18.57L35.15 18.57L35.15 18.57Q34.20 17.64 34.20 16.11L34.20 16.11L34.20 16.11Q34.20 14.57 35.15 13.61L35.15 13.61L35.15 13.61Q36.11 12.65 37.58 12.65L37.58 12.65L37.58 12.65Q38.75 12.65 39.56 13.40L39.56 13.40L39.56 13.40Q40.36 14.16 40.36 15.30L40.36 15.30L40.36 15.30Q40.36 15.85 39.48 15.85L39.48 15.85L35.53 15.85L35.53 15.85Q35.54 16.96 36.24 17.72L36.24 17.72L36.24 17.72Q36.95 18.48 38.02 18.48L38.02 18.48L38.02 18.48Q38.73 18.48 39.40 18.06L39.40 18.06L39.40 18.06Q39.76 17.84 39.86 17.84L39.86 17.84L39.86 17.84Q39.96 17.84 40.08 17.94L40.08 17.94L40.08 17.94Q40.21 18.04 40.21 18.18L40.21 18.18L40.21 18.18Q40.21 18.56 39.73 18.88L39.73 18.88L39.73 18.88Q39.25 19.20 38.66 19.35L38.66 19.35L38.66 19.35Q38.08 19.50 37.65 19.50L37.65 19.50L37.65 19.50Q36.09 19.50 35.15 18.57ZM39.10 15.13L39.10 15.13L39.10 15.13Q39.09 14.35 38.69 13.86L38.69 13.86L38.69 13.86Q38.29 13.36 37.53 13.36L37.53 13.36L37.53 13.36Q36.77 13.36 36.20 13.91L36.20 13.91L36.20 13.91Q35.63 14.46 35.59 15.16L35.59 15.16L37.19 15.16L37.19 15.16Q38.26 15.16 39.10 15.13ZM47.26 16.17L47.26 16.17L47.26 16.17Q47.26 14.59 46.35 13.87L46.35 13.87L46.35 13.87Q45.87 13.50 45.21 13.50L45.21 13.50L45.21 13.50Q43.24 13.50 43.24 15.71L43.24 15.71L43.24 17.96L43.24 17.96Q43.80 18.68 45.15 18.68L45.15 18.68L45.15 18.68Q46.14 18.68 46.70 17.97L46.70 17.97L46.70 17.97Q47.26 17.26 47.26 16.17ZM42.85 22.12L42.85 22.12L42.27 22.13L42.27 22.13Q41.37 22.13 41.16 21.85L41.16 21.85L41.16 21.85Q41.06 21.73 41.06 21.56L41.06 21.56L41.06 21.56Q41.06 21.38 41.20 21.31L41.20 21.31L41.20 21.31Q41.34 21.25 41.50 21.24L41.50 21.24L41.50 21.24Q41.67 21.23 41.81 21.13L41.81 21.13L41.81 21.13Q41.95 21.03 41.95 20.82L41.95 20.82L41.95 14.65L41.95 14.65Q41.95 14.16 41.87 13.97L41.87 13.97L41.87 13.97Q41.80 13.78 41.55 13.69L41.55 13.69L41.55 13.69Q41.52 13.67 41.28 13.62L41.28 13.62L41.28 13.62Q40.76 13.49 40.76 13.28L40.76 13.28L40.76 13.28Q40.76 12.74 42.14 12.74L42.14 12.74L42.14 12.74Q42.72 12.74 42.95 12.88L42.95 12.88L42.95 12.88Q43.18 13.02 43.18 13.47L43.18 13.47L43.18 13.47Q43.18 13.60 43.18 13.67L43.18 13.67L43.18 13.67Q43.70 13.16 44.24 12.89L44.24 12.89L44.24 12.89Q44.77 12.63 45.60 12.63L45.60 12.63L45.60 12.63Q46.42 12.63 47.14 13.09L47.14 13.09L47.14 13.09Q47.87 13.56 48.23 14.32L48.23 14.32L48.23 14.32Q48.60 15.08 48.60 16.02L48.60 16.02L48.60 16.02Q48.60 17.50 47.63 18.46L47.63 18.46L47.63 18.46Q46.66 19.43 45.17 19.43L45.17 19.43L45.17 19.43Q44.32 19.43 43.24 18.87L43.24 18.87L43.24 20.82L43.24 20.82Q43.24 21.21 43.69 21.24L43.69 21.24L43.69 21.24Q44.13 21.26 44.13 21.59L44.13 21.59L44.13 21.59Q44.13 21.96 43.71 22.05L43.71 22.05L43.71 22.05Q43.41 22.12 42.85 22.12Z" transform="matrix(4.636785312648574,0,0,4.636785312648574,107.26429721886358,-42.612055554405)"/></g><g id="b63ac5e2-b967-4514-a261-6788f790ede6" fill="#fff" stroke="none"><path d="M50 10c-22.091 0-40 17.909-40 40s17.909 40 40 40 40-17.909 40-40-17.909-40-40-40zm0 4.969c19.306 0 35 15.725 35 35.031 0 19.306-15.694 35-35 35-19.306 0-35-15.694-35-35 0-19.306 15.694-35.031 35-35.031zM50 19c-12.725 0-23.62 7.621-28.406 18.563l14.781 2.343C39.477 35.724 44.411 33 50 33s10.555 2.724 13.656 6.906l14.75-2.343C73.628 26.62 62.724 19 50 19zm0 18c-7.203 0-13 5.797-13 13s5.797 13 13 13 13-5.797 13-13-5.797-13-13-13zm0 6c3.842 0 7 3.158 7 7s-3.158 7-7 7-7-3.158-7-7 3.158-7 7-7zm0 4c-1.68 0-3 1.32-3 3s1.32 3 3 3 3-1.32 3-3-1.32-3-3-3zm30.906 5.25l-15.781 5.531c-1.517 2.928-3.892 5.34-6.75 6.969L56.75 80.219C69.92 77.3 79.915 66.054 80.906 52.25zm-61.812.062c.992 13.415 10.48 24.43 23.125 27.688L40.53 64.062c-2.337-1.581-4.278-3.705-5.593-6.219z" color="#000" overflow="visible" transform="matrix(1.125,0,0,1.125,-11.25,-11.25)"/></g><g id="aeaede8a-9cd3-4017-8e0c-f510ace80c27" fill="#fff"><path d="M0.28 13.33L0.28 13.33L0.28 13.33Q0.28 13.13 0.49 13.06L0.49 13.06L0.49 13.06Q0.94 12.89 1.27 12.31L1.27 12.31L1.27 12.31Q1.61 11.73 2.94 8.83L2.94 8.83L2.94 8.83Q4.31 5.87 5.36 3.63L5.36 3.63L5.36 3.63Q5.46 3.42 5.54 3.36L5.54 3.36L5.54 3.36Q5.61 3.30 5.78 3.30L5.78 3.30L5.78 3.30Q5.91 3.30 5.95 3.36L5.95 3.36L5.95 3.36Q5.99 3.42 6.13 3.82L6.13 3.82L6.13 3.82Q6.22 4.06 6.28 4.23L6.28 4.23L6.28 4.23Q6.34 4.40 6.48 4.77L6.48 4.77L6.48 4.77Q6.62 5.15 6.79 5.56L6.79 5.56L6.79 5.56Q7.24 6.66 8.34 9.22L8.34 9.22L8.34 9.22Q9.44 11.77 9.53 11.98L9.53 11.98L9.53 11.98Q9.77 12.46 10.07 12.71L10.07 12.71L10.07 12.71Q10.36 12.95 10.58 12.97L10.58 12.97L10.58 12.97Q10.79 12.99 10.94 13.04L10.94 13.04L10.94 13.04Q11.09 13.09 11.09 13.26L11.09 13.26L11.09 13.26Q11.09 13.47 10.71 13.47L10.71 13.47L10.71 13.47Q10.56 13.47 10.11 13.43L10.11 13.43L10.11 13.43Q9.66 13.38 9.45 13.38L9.45 13.38L9.45 13.38Q9.18 13.38 8.76 13.41L8.76 13.41L8.76 13.41Q8.34 13.44 8.15 13.44L8.15 13.44L8.15 13.44Q7.71 13.44 7.59 13.40L7.59 13.40L7.59 13.40Q7.48 13.37 7.48 13.24L7.48 13.24L7.48 13.24Q7.48 13.15 7.59 13.08L7.59 13.08L7.59 13.08Q7.70 13.02 7.83 13.00L7.83 13.00L7.83 13.00Q7.95 12.98 8.06 12.87L8.06 12.87L8.06 12.87Q8.18 12.77 8.18 12.59L8.18 12.59L8.18 12.59Q8.18 12.28 7.83 11.33L7.83 11.33L7.83 11.33Q7.48 10.37 7.24 9.93L7.24 9.93L7.24 9.93Q7.11 9.69 6.66 9.69L6.66 9.69L6.66 9.69Q6.59 9.69 6.05 9.70L6.05 9.70L6.05 9.70Q5.50 9.72 4.97 9.72L4.97 9.72L4.23 9.72L4.23 9.72Q3.60 9.72 3.44 9.79L3.44 9.79L3.44 9.79Q3.28 9.86 3.15 10.12L3.15 10.12L3.15 10.12Q3.07 10.30 2.87 10.70L2.87 10.70L2.87 10.70Q2.67 11.10 2.60 11.26L2.60 11.26L2.60 11.26Q2.53 11.41 2.43 11.65L2.43 11.65L2.43 11.65Q2.32 11.90 2.29 12.05L2.29 12.05L2.29 12.05Q2.25 12.19 2.25 12.31L2.25 12.31L2.25 12.31Q2.25 12.63 2.42 12.80L2.42 12.80L2.42 12.80Q2.58 12.96 2.77 12.98L2.77 12.98L2.77 12.98Q2.97 13.01 3.13 13.06L3.13 13.06L3.13 13.06Q3.29 13.12 3.29 13.26L3.29 13.26L3.29 13.26Q3.29 13.36 3.25 13.40L3.25 13.40L3.25 13.40Q3.21 13.45 3.05 13.45L3.05 13.45L3.05 13.45Q2.97 13.45 2.57 13.45L2.57 13.45L2.57 13.45Q2.17 13.44 1.89 13.44L1.89 13.44L1.89 13.44Q1.58 13.44 1.20 13.47L1.20 13.47L1.20 13.47Q0.81 13.50 0.69 13.50L0.69 13.50L0.69 13.50Q0.28 13.50 0.28 13.33ZM3.79 8.71L3.79 8.71L3.79 8.71Q3.79 8.89 3.92 8.93L3.92 8.93L3.92 8.93Q4.05 8.97 4.51 8.97L4.51 8.97L4.94 8.97L6.27 8.96L6.27 8.96Q6.82 8.96 6.82 8.74L6.82 8.74L6.82 8.74Q6.82 8.55 6.13 7.01L6.13 7.01L6.13 7.01Q5.45 5.46 5.26 5.46L5.26 5.46L5.26 5.46Q5.14 5.46 4.47 7.01L4.47 7.01L4.47 7.01Q3.79 8.55 3.79 8.71ZM18.65 3.77L18.65 3.77L18.65 3.77Q18.65 3.68 18.75 3.60L18.75 3.60L18.75 3.60Q18.84 3.53 19.00 3.53L19.00 3.53L19.00 3.53Q19.08 3.53 19.28 3.54L19.28 3.54L19.28 3.54Q19.47 3.54 19.53 3.54L19.53 3.54L19.53 3.54Q19.74 3.54 19.92 3.53L19.92 3.53L19.92 3.53Q20.10 3.51 20.22 3.51L20.22 3.51L20.22 3.51Q20.34 3.51 20.51 3.59L20.51 3.59L20.51 3.59Q20.68 3.67 20.71 3.75L20.71 3.75L20.71 3.75Q20.73 3.79 20.86 3.94L20.86 3.94L20.86 3.94Q20.99 4.09 21.20 4.33L21.20 4.33L21.20 4.33Q21.41 4.56 21.57 4.79L21.57 4.79L21.57 4.79Q23.48 7.27 26.67 10.77L26.67 10.77L26.67 10.77Q26.75 10.86 26.87 10.99L26.87 10.99L26.87 10.99Q26.99 11.12 27.04 11.18L27.04 11.18L27.04 11.18Q27.09 11.24 27.15 11.30L27.15 11.30L27.15 11.30Q27.20 11.35 27.24 11.38L27.24 11.38L27.24 11.38Q27.27 11.40 27.30 11.40L27.30 11.40L27.30 11.40Q27.44 11.40 27.44 10.53L27.44 10.53L27.44 8.89L27.44 8.89Q27.44 7.95 27.43 7.31L27.43 7.31L27.43 7.31Q27.43 6.66 27.42 6.38L27.42 6.38L27.42 6.38Q27.41 6.09 27.41 6.02L27.41 6.02L27.41 5.92L27.41 5.92Q27.41 5.45 27.35 5.11L27.35 5.11L27.35 5.11Q27.29 4.77 27.20 4.59L27.20 4.59L27.20 4.59Q27.12 4.41 26.96 4.28L26.96 4.28L26.96 4.28Q26.80 4.16 26.68 4.12L26.68 4.12L26.68 4.12Q26.57 4.09 26.36 4.05L26.36 4.05L26.36 4.05Q26.15 4.00 26.07 3.98L26.07 3.98L26.07 3.98Q25.79 3.89 25.79 3.74L25.79 3.74L25.79 3.74Q25.79 3.53 26.05 3.53L26.05 3.53L26.05 3.53Q26.14 3.53 26.73 3.54L26.73 3.54L26.73 3.54Q27.31 3.54 27.38 3.54L27.38 3.54L27.38 3.54Q27.72 3.54 28.13 3.53L28.13 3.53L28.13 3.53Q28.55 3.51 28.64 3.51L28.64 3.51L28.64 3.51Q28.88 3.51 28.97 3.56L28.97 3.56L28.97 3.56Q29.06 3.61 29.06 3.75L29.06 3.75L29.06 3.75Q29.06 3.81 28.99 3.86L28.99 3.86L28.99 3.86Q28.91 3.91 28.83 3.94L28.83 3.94L28.83 3.94Q28.74 3.98 28.66 4.00L28.66 4.00L28.57 4.03L28.57 4.03Q28.11 4.28 28.11 5.61L28.11 5.61L28.11 6.15L28.11 6.15Q28.11 7.21 28.04 9.83L28.04 9.83L28.04 9.83Q27.96 12.46 27.96 13.08L27.96 13.08L27.96 13.36L27.96 13.36Q27.96 13.68 27.76 13.68L27.76 13.68L27.76 13.68Q27.64 13.68 27.54 13.58L27.54 13.58L27.54 13.58Q22.89 8.19 21.99 7.17L21.99 7.17L21.99 7.17Q21.08 6.16 20.99 6.16L20.99 6.16L20.99 6.16Q20.85 6.16 20.85 7.11L20.85 7.11L20.85 7.11Q20.85 8.44 20.79 9.97L20.79 9.97L20.79 9.97Q20.73 11.51 20.73 11.65L20.73 11.65L20.73 11.65Q20.73 12.28 20.95 12.61L20.95 12.61L20.95 12.61Q21.17 12.94 21.42 12.98L21.42 12.98L21.42 12.98Q21.67 13.02 21.89 13.07L21.89 13.07L21.89 13.07Q22.11 13.12 22.11 13.26L22.11 13.26L22.11 13.26Q22.11 13.41 22.06 13.45L22.06 13.45L22.06 13.45Q22.01 13.50 21.88 13.50L21.88 13.50L21.88 13.50Q21.78 13.50 21.44 13.48L21.44 13.48L21.44 13.48Q21.10 13.47 20.38 13.47L20.38 13.47L20.38 13.47Q20.26 13.47 19.87 13.48L19.87 13.48L19.87 13.48Q19.47 13.50 19.19 13.50L19.19 13.50L19.19 13.50Q18.89 13.50 18.89 13.27L18.89 13.27L18.89 13.27Q18.89 13.15 19.07 13.11L19.07 13.11L19.07 13.11Q19.25 13.08 19.52 12.89L19.52 12.89L19.52 12.89Q19.78 12.71 19.92 12.21L19.92 12.21L19.92 12.21Q20.01 11.89 20.13 9.60L20.13 9.60L20.13 9.60Q20.26 7.32 20.26 6.45L20.26 6.45L20.26 6.45Q20.26 5.25 19.92 4.65L19.92 4.65L19.92 4.65Q19.59 4.06 18.83 3.98L18.83 3.98L18.83 3.98Q18.65 3.96 18.65 3.77ZM36.82 5.32L36.82 5.32L36.82 5.32Q36.82 4.76 36.96 3.88L36.96 3.88L36.96 3.88Q36.96 3.85 36.97 3.78L36.97 3.78L36.97 3.78Q36.97 3.71 36.98 3.69L36.98 3.69L36.98 3.69Q36.99 3.67 37.00 3.62L37.00 3.62L37.00 3.62Q37.00 3.57 37.02 3.55L37.02 3.55L37.02 3.55Q37.03 3.53 37.05 3.49L37.05 3.49L37.05 3.49Q37.07 3.46 37.10 3.44L37.10 3.44L37.10 3.44Q37.13 3.43 37.17 3.42L37.17 3.42L37.17 3.42Q37.21 3.40 37.27 3.39L37.27 3.39L37.27 3.39Q37.32 3.39 37.39 3.39L37.39 3.39L37.39 3.39Q37.62 3.39 38.58 3.44L38.58 3.44L38.58 3.44Q39.54 3.50 41.34 3.50L41.34 3.50L41.34 3.50Q44.42 3.50 45.65 3.43L45.65 3.43L45.65 3.43Q45.67 3.43 45.70 3.42L45.70 3.42L45.70 3.42Q45.74 3.42 45.75 3.42L45.75 3.42L45.75 3.42Q45.91 3.42 45.96 3.50L45.96 3.50L45.96 3.50Q46.02 3.58 46.02 3.65L46.02 3.65L46.02 3.65Q46.02 3.75 46.06 4.24L46.06 4.24L46.06 4.24Q46.10 4.73 46.10 4.79L46.10 4.79L46.10 4.79Q46.10 5.14 46.06 5.23L46.06 5.23L46.06 5.23Q46.02 5.32 45.88 5.32L45.88 5.32L45.88 5.32Q45.77 5.32 45.72 5.15L45.72 5.15L45.72 5.15Q45.61 4.75 45.53 4.60L45.53 4.60L45.53 4.60Q45.44 4.45 45.16 4.34L45.16 4.34L45.16 4.34Q44.88 4.23 44.31 4.23L44.31 4.23L42.49 4.23L42.49 4.23Q42.15 4.23 42.08 4.36L42.08 4.36L42.08 4.36Q42.00 4.49 42.00 5.12L42.00 5.12L42.00 5.81L42.00 5.81Q42.00 7.69 41.98 9.11L41.98 9.11L41.98 9.11Q41.96 10.54 41.96 10.93L41.96 10.93L41.96 10.93Q41.96 11.13 41.95 11.43L41.95 11.43L41.95 11.43Q41.94 11.73 41.94 11.84L41.94 11.84L41.94 11.84Q41.94 12.45 42.14 12.64L42.14 12.64L42.14 12.64Q42.32 12.81 42.55 12.90L42.55 12.90L42.55 12.90Q42.77 12.99 42.93 13.01L42.93 13.01L42.93 13.01Q43.09 13.02 43.20 13.08L43.20 13.08L43.20 13.08Q43.32 13.13 43.32 13.26L43.32 13.26L43.32 13.26Q43.32 13.41 43.25 13.45L43.25 13.45L43.25 13.45Q43.18 13.50 42.98 13.50L42.98 13.50L42.98 13.50Q42.81 13.50 42.24 13.44L42.24 13.44L42.24 13.44Q41.66 13.38 41.43 13.38L41.43 13.38L41.43 13.38Q41.26 13.38 40.75 13.43L40.75 13.43L40.75 13.43Q40.24 13.48 40.00 13.48L40.00 13.48L40.00 13.48Q39.48 13.48 39.48 13.26L39.48 13.26L39.48 13.26Q39.48 13.12 39.56 13.07L39.56 13.07L39.56 13.07Q39.65 13.02 39.89 12.98L39.89 12.98L39.89 12.98Q40.14 12.95 40.21 12.94L40.21 12.94L40.21 12.94Q40.68 12.82 40.74 12.38L40.74 12.38L40.74 12.38Q40.88 11.14 40.88 7.08L40.88 7.08L40.87 4.58L40.87 4.58Q40.87 4.31 40.71 4.25L40.71 4.25L40.71 4.25Q40.56 4.19 39.80 4.19L39.80 4.19L39.80 4.19Q38.82 4.19 38.33 4.24L38.33 4.24L38.33 4.24Q37.83 4.30 37.74 4.35L37.74 4.35L37.74 4.35Q37.66 4.40 37.55 4.54L37.55 4.54L37.55 4.54Q37.42 4.70 37.35 4.91L37.35 4.91L37.35 4.91Q37.27 5.11 37.25 5.24L37.25 5.24L37.25 5.24Q37.23 5.38 37.16 5.47L37.16 5.47L37.16 5.47Q37.10 5.56 36.97 5.56L36.97 5.56L36.97 5.56Q36.82 5.56 36.82 5.32ZM53.66 3.71L53.66 3.71L53.66 3.71Q53.66 3.50 54.05 3.50L54.05 3.50L54.05 3.50Q54.19 3.50 54.70 3.53L54.70 3.53L54.70 3.53Q55.20 3.56 55.64 3.56L55.64 3.56L55.64 3.56Q55.90 3.56 56.15 3.54L56.15 3.54L56.15 3.54Q56.39 3.53 56.87 3.53L56.87 3.53L56.87 3.53Q57.25 3.53 57.25 3.72L57.25 3.72L57.25 3.72Q57.25 3.84 56.60 4.10L56.60 4.10L56.60 4.10Q56.15 4.28 56.15 5.71L56.15 5.71L56.15 5.71Q56.15 7.60 56.13 9.05L56.13 9.05L56.13 9.05Q56.11 10.50 56.11 10.89L56.11 10.89L56.11 10.89Q56.11 12.07 56.46 12.59L56.46 12.59L56.46 12.59Q56.77 13.02 57.13 13.02L57.13 13.02L57.13 13.02Q57.16 13.02 57.27 13.03L57.27 13.03L57.27 13.03Q57.39 13.03 57.41 13.03L57.41 13.03L57.41 13.03Q57.51 13.03 57.61 13.08L57.61 13.08L57.61 13.08Q57.71 13.13 57.71 13.19L57.71 13.19L57.71 13.19Q57.71 13.34 57.63 13.39L57.63 13.39L57.63 13.39Q57.55 13.44 57.36 13.44L57.36 13.44L57.36 13.44Q56.94 13.44 56.58 13.41L56.58 13.41L56.58 13.41Q56.22 13.38 56.03 13.38L56.03 13.38L56.03 13.38Q55.64 13.38 55.17 13.42L55.17 13.42L55.17 13.42Q54.71 13.45 54.49 13.45L54.49 13.45L54.49 13.45Q53.86 13.45 53.86 13.24L53.86 13.24L53.86 13.24Q53.86 13.12 53.99 13.07L53.99 13.07L53.99 13.07Q54.12 13.02 54.29 13.00L54.29 13.00L54.29 13.00Q54.46 12.98 54.64 12.82L54.64 12.82L54.64 12.82Q54.82 12.66 54.89 12.35L54.89 12.35L54.89 12.35Q54.92 12.25 54.99 10.76L54.99 10.76L54.99 10.76Q55.05 9.27 55.05 8.61L55.05 8.61L55.05 7.81L55.05 7.81Q55.05 7.63 55.06 7.12L55.06 7.12L55.06 7.12Q55.06 6.61 55.06 6.30L55.06 6.30L55.06 5.66L55.06 5.66Q55.06 5.04 55.01 4.63L55.01 4.63L55.01 4.63Q54.96 4.30 54.64 4.12L54.64 4.12L54.64 4.12Q54.31 3.93 53.96 3.92L53.96 3.92L53.96 3.92Q53.66 3.91 53.66 3.71ZM75.78 10.82L75.78 10.82L75.78 10.82Q75.78 10.53 75.98 10.53L75.98 10.53L75.98 10.53Q76.16 10.53 76.20 10.67L76.20 10.67L76.20 10.67Q76.34 11.00 76.46 11.25L76.46 11.25L76.46 11.25Q76.58 11.49 76.85 11.85L76.85 11.85L76.85 11.85Q77.11 12.21 77.42 12.44L77.42 12.44L77.42 12.44Q77.73 12.67 78.21 12.84L78.21 12.84L78.21 12.84Q78.69 13.01 79.27 13.01L79.27 13.01L79.27 13.01Q80.32 13.01 80.95 12.45L80.95 12.45L80.95 12.45Q81.59 11.90 81.59 11.00L81.59 11.00L81.59 11.00Q81.59 10.35 81.16 9.90L81.16 9.90L81.16 9.90Q80.72 9.46 80.16 9.27L80.16 9.27L80.16 9.27Q79.60 9.09 78.74 8.77L78.74 8.77L78.74 8.77Q77.88 8.46 77.34 8.13L77.34 8.13L77.34 8.13Q76.06 7.38 76.06 6.08L76.06 6.08L76.06 6.08Q76.06 4.83 76.97 4.08L76.97 4.08L76.97 4.08Q77.87 3.33 79.31 3.33L79.31 3.33L79.31 3.33Q79.84 3.33 80.58 3.56L80.58 3.56L80.58 3.56Q81.31 3.79 81.33 3.79L81.33 3.79L81.33 3.79Q81.37 3.79 81.48 3.74L81.48 3.74L81.48 3.74Q81.59 3.68 81.65 3.68L81.65 3.68L81.65 3.68Q81.83 3.68 81.86 3.79L81.86 3.79L81.86 3.79Q82.15 5.49 82.15 5.70L82.15 5.70L82.15 5.70Q82.15 6.09 81.96 6.09L81.96 6.09L81.96 6.09Q81.83 6.09 81.76 5.89L81.76 5.89L81.76 5.89Q81.59 5.49 81.43 5.24L81.43 5.24L81.43 5.24Q81.27 4.98 81.20 4.91L81.20 4.91L81.20 4.91Q81.13 4.84 80.84 4.58L80.84 4.58L80.84 4.58Q80.08 3.91 79.00 3.91L79.00 3.91L79.00 3.91Q78.13 3.91 77.55 4.33L77.55 4.33L77.55 4.33Q76.96 4.75 76.96 5.46L76.96 5.46L76.96 5.46Q76.96 6.09 77.30 6.50L77.30 6.50L77.30 6.50Q77.64 6.90 78.22 7.13L78.22 7.13L78.22 7.13Q78.79 7.35 79.42 7.55L79.42 7.55L79.42 7.55Q80.05 7.74 80.76 8.09L80.76 8.09L80.76 8.09Q81.47 8.44 81.93 8.93L81.93 8.93L81.93 8.93Q82.49 9.53 82.49 10.43L82.49 10.43L82.49 10.43Q82.49 11.90 81.55 12.76L81.55 12.76L81.55 12.76Q80.61 13.62 79.23 13.62L79.23 13.62L79.23 13.62Q78.26 13.62 77.67 13.52L77.67 13.52L77.67 13.52Q77.08 13.41 76.47 13.09L76.47 13.09L76.47 13.09Q76.29 12.98 76.03 12.00L76.03 12.00L76.03 12.00Q75.78 11.02 75.78 10.82ZM90.58 3.71L90.58 3.71L90.58 3.71Q90.58 3.46 90.96 3.46L90.96 3.46L90.96 3.46Q91.01 3.46 91.14 3.47L91.14 3.47L91.14 3.47Q91.27 3.49 91.34 3.49L91.34 3.49L91.34 3.49Q91.48 3.49 91.86 3.51L91.86 3.51L91.86 3.51Q92.25 3.54 92.55 3.54L92.55 3.54L92.55 3.54Q92.99 3.54 93.48 3.51L93.48 3.51L93.48 3.51Q93.97 3.49 94.02 3.49L94.02 3.49L94.02 3.49Q94.26 3.49 94.26 3.63L94.26 3.63L94.26 3.63Q94.26 3.82 94.09 3.88L94.09 3.88L94.09 3.88Q93.93 3.95 93.72 3.97L93.72 3.97L93.72 3.97Q93.52 3.99 93.33 4.28L93.33 4.28L93.33 4.28Q93.14 4.56 93.11 5.14L93.11 5.14L93.11 5.14Q93.09 5.68 93.04 8.19L93.04 8.19L93.04 8.19Q93.00 10.70 93.00 10.99L93.00 10.99L93.00 11.55L93.00 11.55Q93.00 12.56 93.34 12.66L93.34 12.66L93.34 12.66Q93.69 12.77 93.94 12.77L93.94 12.77L93.94 12.77Q94.99 12.77 95.78 12.67L95.78 12.67L95.78 12.67Q96.57 12.57 96.97 12.42L96.97 12.42L96.97 12.42Q97.37 12.28 97.64 12.10L97.64 12.10L97.64 12.10Q97.90 11.93 97.98 11.78L97.98 11.78L97.98 11.78Q98.06 11.63 98.13 11.54L98.13 11.54L98.13 11.54Q98.21 11.44 98.29 11.44L98.29 11.44L98.29 11.44Q98.46 11.44 98.46 11.68L98.46 11.68L98.46 11.68Q98.46 12.28 97.86 12.89L97.86 12.89L97.86 12.89Q97.26 13.51 96.81 13.51L96.81 13.51L96.81 13.51Q95.80 13.51 94.53 13.44L94.53 13.44L94.53 13.44Q93.27 13.37 92.96 13.37L92.96 13.37L92.96 13.37Q92.57 13.37 92.06 13.43L92.06 13.43L92.06 13.43Q91.55 13.48 91.21 13.48L91.21 13.48L91.21 13.48Q90.80 13.48 90.80 13.31L90.80 13.31L90.80 13.31Q90.80 13.22 90.88 13.15L90.88 13.15L90.88 13.15Q90.96 13.09 91.03 13.09L91.03 13.09L91.03 13.09Q91.24 13.09 91.43 12.95L91.43 12.95L91.43 12.95Q91.69 12.75 91.80 12.23L91.80 12.23L91.80 12.23Q91.91 11.70 91.91 10.21L91.91 10.21L91.91 8.47L91.91 8.47Q91.91 8.09 91.93 7.29L91.93 7.29L91.93 7.29Q91.95 6.50 91.95 6.05L91.95 6.05L91.95 6.05Q91.95 5.67 91.92 4.77L91.92 4.77L91.92 4.77Q91.91 4.37 91.57 4.14L91.57 4.14L91.57 4.14Q91.24 3.92 90.79 3.91L90.79 3.91L90.79 3.91Q90.65 3.91 90.61 3.86L90.61 3.86L90.61 3.86Q90.58 3.81 90.58 3.71ZM106.02 3.65L106.02 3.65L106.02 3.65Q106.02 3.46 106.41 3.46L106.41 3.46L106.41 3.46Q106.47 3.46 106.60 3.47L106.60 3.47L106.60 3.47Q106.72 3.49 106.79 3.49L106.79 3.49L106.79 3.49Q106.83 3.49 108.11 3.52L108.11 3.52L108.11 3.52Q109.38 3.56 110.21 3.56L110.21 3.56L110.21 3.56Q110.50 3.56 111.66 3.53L111.66 3.53L111.66 3.53Q112.81 3.50 113.01 3.50L113.01 3.50L113.01 3.50Q113.27 3.50 113.27 3.82L113.27 3.82L113.27 3.82Q113.27 3.91 113.19 4.38L113.19 4.38L113.19 4.38Q113.11 4.84 113.11 5.25L113.11 5.25L113.11 5.25Q113.11 5.38 113.04 5.47L113.04 5.47L113.04 5.47Q112.97 5.56 112.88 5.56L112.88 5.56L112.88 5.56Q112.67 5.56 112.67 5.26L112.67 5.26L112.67 5.26Q112.67 4.89 112.43 4.58L112.43 4.58L112.43 4.58Q112.20 4.27 111.85 4.26L111.85 4.26L111.85 4.26Q110.59 4.16 109.91 4.16L109.91 4.16L109.55 4.16L109.55 4.16Q108.82 4.16 108.70 4.26L108.70 4.26L108.70 4.26Q108.58 4.37 108.56 5.01L108.56 5.01L108.56 5.01Q108.50 6.02 108.50 7.35L108.50 7.35L108.50 7.35Q108.50 8.05 108.77 8.06L108.77 8.06L109.12 8.06L109.70 8.06L110.14 8.06L110.14 8.06Q110.98 8.06 111.26 8.01L111.26 8.01L111.26 8.01Q111.54 7.95 111.76 7.80L111.76 7.80L111.76 7.80Q112.03 7.62 112.08 7.28L112.08 7.28L112.08 7.28Q112.13 7.04 112.28 7.04L112.28 7.04L112.28 7.04Q112.41 7.04 112.43 7.08L112.43 7.08L112.43 7.08Q112.46 7.13 112.46 7.27L112.46 7.27L112.46 7.27Q112.46 7.36 112.41 7.91L112.41 7.91L112.41 7.91Q112.35 8.46 112.35 8.74L112.35 8.74L112.35 8.74Q112.35 9.00 112.37 9.24L112.37 9.24L112.37 9.24Q112.39 9.48 112.39 9.59L112.39 9.59L112.39 9.59Q112.39 9.94 112.29 9.94L112.29 9.94L112.29 9.94Q112.08 9.94 111.99 9.60L111.99 9.60L111.99 9.60Q111.79 9.02 111.64 8.92L111.64 8.92L111.64 8.92Q111.34 8.72 110.29 8.72L110.29 8.72L110.29 8.72Q109.87 8.72 109.61 8.72L109.61 8.72L109.61 8.72Q109.35 8.72 109.28 8.71L109.28 8.71L109.28 8.71Q109.20 8.71 109.15 8.71L109.15 8.71L109.15 8.71Q109.10 8.71 109.06 8.71L109.06 8.71L109.06 8.71Q108.49 8.71 108.49 8.97L108.49 8.97L108.49 8.97Q108.49 9.38 108.47 9.99L108.47 9.99L108.47 9.99Q108.46 10.60 108.46 10.99L108.46 10.99L108.46 11.55L108.46 11.55Q108.46 12.56 108.79 12.66L108.79 12.66L108.79 12.66Q109.14 12.77 109.40 12.77L109.40 12.77L109.40 12.77Q110.45 12.77 111.24 12.67L111.24 12.67L111.24 12.67Q112.03 12.57 112.43 12.42L112.43 12.42L112.43 12.42Q112.83 12.28 113.09 12.10L113.09 12.10L113.09 12.10Q113.36 11.93 113.43 11.78L113.43 11.78L113.43 11.78Q113.51 11.63 113.59 11.54L113.59 11.54L113.59 11.54Q113.67 11.44 113.75 11.44L113.75 11.44L113.75 11.44Q113.92 11.44 113.92 11.68L113.92 11.68L113.92 11.68Q113.92 12.28 113.32 12.89L113.32 12.89L113.32 12.89Q112.71 13.51 112.27 13.51L112.27 13.51L112.27 13.51Q111.26 13.51 109.99 13.44L109.99 13.44L109.99 13.44Q108.72 13.37 108.42 13.37L108.42 13.37L108.42 13.37Q108.02 13.37 107.44 13.43L107.44 13.43L107.44 13.43Q106.85 13.50 106.51 13.50L106.51 13.50L106.51 13.50Q106.22 13.50 106.22 13.36L106.22 13.36L106.22 13.36Q106.22 13.23 106.22 13.19L106.22 13.19L106.22 13.19Q106.22 13.15 106.26 13.12L106.26 13.12L106.26 13.12Q106.30 13.09 106.35 13.08L106.35 13.08L106.35 13.08Q106.40 13.08 106.53 13.03L106.53 13.03L106.53 13.03Q106.67 12.99 106.82 12.92L106.82 12.92L106.82 12.92Q107.16 12.75 107.26 12.26L107.26 12.26L107.26 12.26Q107.37 11.77 107.37 10.21L107.37 10.21L107.37 8.47L107.37 8.47Q107.37 8.09 107.39 7.29L107.39 7.29L107.39 7.29Q107.41 6.50 107.41 6.05L107.41 6.05L107.41 6.05Q107.41 5.67 107.38 4.77L107.38 4.77L107.38 4.77Q107.37 4.37 107.03 4.14L107.03 4.14L107.03 4.14Q106.69 3.92 106.25 3.91L106.25 3.91L106.25 3.91Q106.02 3.91 106.02 3.65ZM121.48 3.65L121.48 3.65L121.48 3.65Q121.48 3.46 121.87 3.46L121.87 3.46L121.87 3.46Q121.93 3.46 122.05 3.47L122.05 3.47L122.05 3.47Q122.18 3.49 122.25 3.49L122.25 3.49L122.25 3.49Q122.29 3.49 123.56 3.52L123.56 3.52L123.56 3.52Q124.84 3.56 125.66 3.56L125.66 3.56L125.66 3.56Q125.96 3.56 127.11 3.53L127.11 3.53L127.11 3.53Q128.27 3.50 128.46 3.50L128.46 3.50L128.46 3.50Q128.73 3.50 128.73 3.82L128.73 3.82L128.73 3.82Q128.73 3.91 128.65 4.38L128.65 4.38L128.65 4.38Q128.56 4.84 128.56 5.25L128.56 5.25L128.56 5.25Q128.56 5.38 128.49 5.47L128.49 5.47L128.49 5.47Q128.42 5.56 128.34 5.56L128.34 5.56L128.34 5.56Q128.13 5.56 128.13 5.26L128.13 5.26L128.13 5.26Q128.13 4.89 127.89 4.58L127.89 4.58L127.89 4.58Q127.65 4.27 127.30 4.26L127.30 4.26L127.30 4.26Q126.04 4.16 125.37 4.16L125.37 4.16L125.01 4.16L125.01 4.16Q124.28 4.16 124.16 4.26L124.16 4.26L124.16 4.26Q124.04 4.37 124.01 5.01L124.01 5.01L124.01 5.01Q123.96 6.02 123.96 7.35L123.96 7.35L123.96 7.35Q123.96 8.05 124.22 8.06L124.22 8.06L124.57 8.06L125.16 8.06L125.59 8.06L125.59 8.06Q126.43 8.06 126.71 8.01L126.71 8.01L126.71 8.01Q126.99 7.95 127.22 7.80L127.22 7.80L127.22 7.80Q127.48 7.62 127.54 7.28L127.54 7.28L127.54 7.28Q127.58 7.04 127.74 7.04L127.74 7.04L127.74 7.04Q127.86 7.04 127.89 7.08L127.89 7.08L127.89 7.08Q127.92 7.13 127.92 7.27L127.92 7.27L127.92 7.27Q127.92 7.36 127.86 7.91L127.86 7.91L127.86 7.91Q127.81 8.46 127.81 8.74L127.81 8.74L127.81 8.74Q127.81 9.00 127.83 9.24L127.83 9.24L127.83 9.24Q127.85 9.48 127.85 9.59L127.85 9.59L127.85 9.59Q127.85 9.94 127.75 9.94L127.75 9.94L127.75 9.94Q127.54 9.94 127.44 9.60L127.44 9.60L127.44 9.60Q127.25 9.02 127.09 8.92L127.09 8.92L127.09 8.92Q126.80 8.72 125.75 8.72L125.75 8.72L125.75 8.72Q125.33 8.72 125.07 8.72L125.07 8.72L125.07 8.72Q124.81 8.72 124.73 8.71L124.73 8.71L124.73 8.71Q124.66 8.71 124.61 8.71L124.61 8.71L124.61 8.71Q124.56 8.71 124.52 8.71L124.52 8.71L124.52 8.71Q123.94 8.71 123.94 8.97L123.94 8.97L123.94 8.97Q123.94 9.38 123.93 9.99L123.93 9.99L123.93 9.99Q123.91 10.60 123.91 10.99L123.91 10.99L123.91 11.55L123.91 11.55Q123.91 12.56 124.25 12.66L124.25 12.66L124.25 12.66Q124.60 12.77 124.85 12.77L124.85 12.77L124.85 12.77Q125.90 12.77 126.69 12.67L126.69 12.67L126.69 12.67Q127.48 12.57 127.88 12.42L127.88 12.42L127.88 12.42Q128.28 12.28 128.55 12.10L128.55 12.10L128.55 12.10Q128.81 11.93 128.89 11.78L128.89 11.78L128.89 11.78Q128.97 11.63 129.04 11.54L129.04 11.54L129.04 11.54Q129.12 11.44 129.21 11.44L129.21 11.44L129.21 11.44Q129.37 11.44 129.37 11.68L129.37 11.68L129.37 11.68Q129.37 12.28 128.77 12.89L128.77 12.89L128.77 12.89Q128.17 13.51 127.72 13.51L127.72 13.51L127.72 13.51Q126.71 13.51 125.45 13.44L125.45 13.44L125.45 13.44Q124.18 13.37 123.87 13.37L123.87 13.37L123.87 13.37Q123.48 13.37 122.89 13.43L122.89 13.43L122.89 13.43Q122.30 13.50 121.97 13.50L121.97 13.50L121.97 13.50Q121.67 13.50 121.67 13.36L121.67 13.36L121.67 13.36Q121.67 13.23 121.67 13.19L121.67 13.19L121.67 13.19Q121.67 13.15 121.72 13.12L121.72 13.12L121.72 13.12Q121.76 13.09 121.81 13.08L121.81 13.08L121.81 13.08Q121.86 13.08 121.99 13.03L121.99 13.03L121.99 13.03Q122.12 12.99 122.28 12.92L122.28 12.92L122.28 12.92Q122.61 12.75 122.72 12.26L122.72 12.26L122.72 12.26Q122.82 11.77 122.82 10.21L122.82 10.21L122.82 8.47L122.82 8.47Q122.82 8.09 122.84 7.29L122.84 7.29L122.84 7.29Q122.86 6.50 122.86 6.05L122.86 6.05L122.86 6.05Q122.86 5.67 122.84 4.77L122.84 4.77L122.84 4.77Q122.82 4.37 122.49 4.14L122.49 4.14L122.49 4.14Q122.15 3.92 121.70 3.91L121.70 3.91L121.70 3.91Q121.48 3.91 121.48 3.65ZM136.93 3.72L136.93 3.72L136.93 3.72Q136.93 3.50 137.26 3.50L137.26 3.50L137.26 3.50Q137.30 3.50 137.41 3.49L137.41 3.49L137.41 3.49Q137.52 3.49 137.77 3.49L137.77 3.49L137.77 3.49Q137.84 3.49 138.16 3.51L138.16 3.51L138.16 3.51Q138.47 3.53 138.61 3.53L138.61 3.53L138.61 3.53Q138.92 3.53 139.80 3.51L139.80 3.51L139.80 3.51Q140.69 3.49 140.92 3.49L140.92 3.49L140.92 3.49Q142.24 3.49 143.19 4.15L143.19 4.15L143.19 4.15Q144.14 4.82 144.14 6.06L144.14 6.06L144.14 6.06Q144.14 6.75 143.89 7.29L143.89 7.29L143.89 7.29Q143.64 7.83 143.28 8.13L143.28 8.13L143.28 8.13Q142.93 8.44 142.48 8.64L142.48 8.64L142.48 8.64Q142.04 8.85 141.70 8.91L141.70 8.91L141.70 8.91Q141.36 8.97 141.09 8.97L141.09 8.97L141.09 8.97Q140.64 8.97 140.18 8.87L140.18 8.87L140.18 8.87Q139.72 8.76 139.72 8.65L139.72 8.65L139.72 8.65Q139.72 8.44 139.90 8.44L139.90 8.44L139.90 8.44Q139.97 8.44 140.19 8.50L140.19 8.50L140.19 8.50Q140.41 8.55 140.62 8.55L140.62 8.55L140.62 8.55Q140.94 8.55 141.30 8.46L141.30 8.46L141.30 8.46Q141.67 8.37 142.06 8.17L142.06 8.17L142.06 8.17Q142.45 7.97 142.70 7.55L142.70 7.55L142.70 7.55Q142.95 7.14 142.95 6.59L142.95 6.59L142.95 6.59Q142.95 5.66 142.20 4.85L142.20 4.85L142.20 4.85Q141.44 4.05 140.11 4.05L140.11 4.05L140.11 4.05Q139.68 4.05 139.52 4.30L139.52 4.30L139.52 4.30Q139.37 4.56 139.37 5.47L139.37 5.47L139.37 5.47Q139.37 8.39 139.36 8.80L139.36 8.80L139.36 8.80Q139.34 9.21 139.34 11.26L139.34 11.26L139.34 11.26Q139.34 12.49 139.92 12.87L139.92 12.87L139.92 12.87Q140.07 12.96 140.30 12.99L140.30 12.99L140.30 12.99Q140.53 13.02 140.69 13.01L140.69 13.01L140.69 13.01Q140.84 13.01 140.96 13.07L140.96 13.07L140.96 13.07Q141.08 13.13 141.08 13.30L141.08 13.30L141.08 13.30Q141.08 13.54 140.76 13.54L140.76 13.54L140.76 13.54Q140.43 13.54 139.62 13.50L139.62 13.50L139.62 13.50Q138.81 13.47 138.75 13.47L138.75 13.47L138.75 13.47Q138.61 13.47 138.20 13.50L138.20 13.50L138.20 13.50Q137.79 13.52 137.45 13.52L137.45 13.52L137.45 13.52Q137.02 13.52 137.02 13.37L137.02 13.37L137.02 13.37Q137.02 13.29 137.04 13.23L137.04 13.23L137.04 13.23Q137.06 13.17 137.08 13.14L137.08 13.14L137.08 13.14Q137.10 13.10 137.17 13.08L137.17 13.08L137.17 13.08Q137.24 13.05 137.27 13.03L137.27 13.03L137.27 13.03Q137.30 13.02 137.40 13.00L137.40 13.00L137.40 13.00Q137.51 12.98 137.55 12.96L137.55 12.96L137.55 12.96Q137.58 12.95 137.63 12.94L137.63 12.94L137.63 12.94Q137.69 12.94 137.71 12.93L137.71 12.93L137.71 12.93Q137.73 12.92 137.78 12.89L137.78 12.89L137.78 12.89Q137.83 12.85 137.86 12.79L137.86 12.79L137.86 12.79Q137.89 12.73 137.94 12.62L137.94 12.62L137.94 12.62Q137.98 12.52 138.04 12.35L138.04 12.35L138.04 12.35Q138.14 12.08 138.19 10.25L138.19 10.25L138.19 10.25Q138.25 8.41 138.25 7.41L138.25 7.41L138.25 7.41Q138.25 6.54 138.24 5.80L138.24 5.80L138.24 5.80Q138.24 5.07 138.24 5.03L138.24 5.03L138.24 5.03Q138.24 4.65 138.00 4.28L138.00 4.28L138.00 4.28Q137.76 3.91 137.21 3.91L137.21 3.91L137.21 3.91Q136.93 3.91 136.93 3.72ZM161.81 13.33L161.81 13.33L161.81 13.33Q161.81 13.13 162.02 13.06L162.02 13.06L162.02 13.06Q162.47 12.89 162.81 12.31L162.81 12.31L162.81 12.31Q163.14 11.73 164.47 8.83L164.47 8.83L164.47 8.83Q165.84 5.87 166.89 3.63L166.89 3.63L166.89 3.63Q166.99 3.42 167.07 3.36L167.07 3.36L167.07 3.36Q167.15 3.30 167.31 3.30L167.31 3.30L167.31 3.30Q167.44 3.30 167.48 3.36L167.48 3.36L167.48 3.36Q167.52 3.42 167.66 3.82L167.66 3.82L167.66 3.82Q167.75 4.06 167.81 4.23L167.81 4.23L167.81 4.23Q167.87 4.40 168.01 4.77L168.01 4.77L168.01 4.77Q168.15 5.15 168.32 5.56L168.32 5.56L168.32 5.56Q168.77 6.66 169.87 9.22L169.87 9.22L169.87 9.22Q170.97 11.77 171.07 11.98L171.07 11.98L171.07 11.98Q171.30 12.46 171.60 12.71L171.60 12.71L171.60 12.71Q171.89 12.95 172.11 12.97L172.11 12.97L172.11 12.97Q172.33 12.99 172.47 13.04L172.47 13.04L172.47 13.04Q172.62 13.09 172.62 13.26L172.62 13.26L172.62 13.26Q172.62 13.47 172.24 13.47L172.24 13.47L172.24 13.47Q172.09 13.47 171.64 13.43L171.64 13.43L171.64 13.43Q171.19 13.38 170.98 13.38L170.98 13.38L170.98 13.38Q170.72 13.38 170.30 13.41L170.30 13.41L170.30 13.41Q169.88 13.44 169.68 13.44L169.68 13.44L169.68 13.44Q169.25 13.44 169.13 13.40L169.13 13.40L169.13 13.40Q169.01 13.37 169.01 13.24L169.01 13.24L169.01 13.24Q169.01 13.15 169.12 13.08L169.12 13.08L169.12 13.08Q169.23 13.02 169.36 13.00L169.36 13.00L169.36 13.00Q169.48 12.98 169.60 12.87L169.60 12.87L169.60 12.87Q169.71 12.77 169.71 12.59L169.71 12.59L169.71 12.59Q169.71 12.28 169.36 11.33L169.36 11.33L169.36 11.33Q169.01 10.37 168.77 9.93L168.77 9.93L168.77 9.93Q168.64 9.69 168.20 9.69L168.20 9.69L168.20 9.69Q168.13 9.69 167.58 9.70L167.58 9.70L167.58 9.70Q167.03 9.72 166.50 9.72L166.50 9.72L165.76 9.72L165.76 9.72Q165.13 9.72 164.97 9.79L164.97 9.79L164.97 9.79Q164.81 9.86 164.68 10.12L164.68 10.12L164.68 10.12Q164.60 10.30 164.40 10.70L164.40 10.70L164.40 10.70Q164.21 11.10 164.14 11.26L164.14 11.26L164.14 11.26Q164.07 11.41 163.96 11.65L163.96 11.65L163.96 11.65Q163.86 11.90 163.82 12.05L163.82 12.05L163.82 12.05Q163.79 12.19 163.79 12.31L163.79 12.31L163.79 12.31Q163.79 12.63 163.95 12.80L163.95 12.80L163.95 12.80Q164.11 12.96 164.30 12.98L164.30 12.98L164.30 12.98Q164.50 13.01 164.66 13.06L164.66 13.06L164.66 13.06Q164.82 13.12 164.82 13.26L164.82 13.26L164.82 13.26Q164.82 13.36 164.78 13.40L164.78 13.40L164.78 13.40Q164.74 13.45 164.58 13.45L164.58 13.45L164.58 13.45Q164.50 13.45 164.10 13.45L164.10 13.45L164.10 13.45Q163.70 13.44 163.42 13.44L163.42 13.44L163.42 13.44Q163.11 13.44 162.73 13.47L162.73 13.47L162.73 13.47Q162.34 13.50 162.22 13.50L162.22 13.50L162.22 13.50Q161.81 13.50 161.81 13.33ZM165.33 8.71L165.33 8.71L165.33 8.71Q165.33 8.89 165.45 8.93L165.45 8.93L165.45 8.93Q165.58 8.97 166.04 8.97L166.04 8.97L166.47 8.97L167.80 8.96L167.80 8.96Q168.35 8.96 168.35 8.74L168.35 8.74L168.35 8.74Q168.35 8.55 167.66 7.01L167.66 7.01L167.66 7.01Q166.98 5.46 166.80 5.46L166.80 5.46L166.80 5.46Q166.67 5.46 166.00 7.01L166.00 7.01L166.00 7.01Q165.33 8.55 165.33 8.71ZM180.18 3.71L180.18 3.71L180.18 3.71Q180.18 3.46 180.56 3.46L180.56 3.46L180.56 3.46Q180.61 3.46 180.74 3.47L180.74 3.47L180.74 3.47Q180.87 3.49 180.94 3.49L180.94 3.49L180.94 3.49Q181.08 3.49 181.46 3.51L181.46 3.51L181.46 3.51Q181.85 3.54 182.15 3.54L182.15 3.54L182.15 3.54Q182.59 3.54 183.08 3.51L183.08 3.51L183.08 3.51Q183.57 3.49 183.62 3.49L183.62 3.49L183.62 3.49Q183.86 3.49 183.86 3.63L183.86 3.63L183.86 3.63Q183.86 3.82 183.69 3.88L183.69 3.88L183.69 3.88Q183.53 3.95 183.32 3.97L183.32 3.97L183.32 3.97Q183.12 3.99 182.93 4.28L182.93 4.28L182.93 4.28Q182.74 4.56 182.71 5.14L182.71 5.14L182.71 5.14Q182.69 5.68 182.64 8.19L182.64 8.19L182.64 8.19Q182.60 10.70 182.60 10.99L182.60 10.99L182.60 11.55L182.60 11.55Q182.60 12.56 182.94 12.66L182.94 12.66L182.94 12.66Q183.29 12.77 183.54 12.77L183.54 12.77L183.54 12.77Q184.59 12.77 185.38 12.67L185.38 12.67L185.38 12.67Q186.17 12.57 186.57 12.42L186.57 12.42L186.57 12.42Q186.97 12.28 187.24 12.10L187.24 12.10L187.24 12.10Q187.50 11.93 187.58 11.78L187.58 11.78L187.58 11.78Q187.66 11.63 187.73 11.54L187.73 11.54L187.73 11.54Q187.81 11.44 187.89 11.44L187.89 11.44L187.89 11.44Q188.06 11.44 188.06 11.68L188.06 11.68L188.06 11.68Q188.06 12.28 187.46 12.89L187.46 12.89L187.46 12.89Q186.86 13.51 186.41 13.51L186.41 13.51L186.41 13.51Q185.40 13.51 184.13 13.44L184.13 13.44L184.13 13.44Q182.87 13.37 182.56 13.37L182.56 13.37L182.56 13.37Q182.17 13.37 181.66 13.43L181.66 13.43L181.66 13.43Q181.15 13.48 180.81 13.48L180.81 13.48L180.81 13.48Q180.40 13.48 180.40 13.31L180.40 13.31L180.40 13.31Q180.40 13.22 180.48 13.15L180.48 13.15L180.48 13.15Q180.56 13.09 180.63 13.09L180.63 13.09L180.63 13.09Q180.84 13.09 181.03 12.95L181.03 12.95L181.03 12.95Q181.29 12.75 181.40 12.23L181.40 12.23L181.40 12.23Q181.51 11.70 181.51 10.21L181.51 10.21L181.51 8.47L181.51 8.47Q181.51 8.09 181.53 7.29L181.53 7.29L181.53 7.29Q181.55 6.50 181.55 6.05L181.55 6.05L181.55 6.05Q181.55 5.67 181.52 4.77L181.52 4.77L181.52 4.77Q181.51 4.37 181.17 4.14L181.17 4.14L181.17 4.14Q180.84 3.92 180.39 3.91L180.39 3.91L180.39 3.91Q180.25 3.91 180.21 3.86L180.21 3.86L180.21 3.86Q180.18 3.81 180.18 3.71ZM195.62 13.33L195.62 13.33L195.62 13.33Q195.62 13.13 195.83 13.06L195.83 13.06L195.83 13.06Q196.28 12.89 196.62 12.31L196.62 12.31L196.62 12.31Q196.95 11.73 198.28 8.83L198.28 8.83L198.28 8.83Q199.65 5.87 200.70 3.63L200.70 3.63L200.70 3.63Q200.80 3.42 200.88 3.36L200.88 3.36L200.88 3.36Q200.96 3.30 201.12 3.30L201.12 3.30L201.12 3.30Q201.25 3.30 201.29 3.36L201.29 3.36L201.29 3.36Q201.33 3.42 201.47 3.82L201.47 3.82L201.47 3.82Q201.56 4.06 201.62 4.23L201.62 4.23L201.62 4.23Q201.68 4.40 201.82 4.77L201.82 4.77L201.82 4.77Q201.96 5.15 202.13 5.56L202.13 5.56L202.13 5.56Q202.58 6.66 203.68 9.22L203.68 9.22L203.68 9.22Q204.78 11.77 204.88 11.98L204.88 11.98L204.88 11.98Q205.11 12.46 205.41 12.71L205.41 12.71L205.41 12.71Q205.70 12.95 205.92 12.97L205.92 12.97L205.92 12.97Q206.14 12.99 206.28 13.04L206.28 13.04L206.28 13.04Q206.43 13.09 206.43 13.26L206.43 13.26L206.43 13.26Q206.43 13.47 206.05 13.47L206.05 13.47L206.05 13.47Q205.90 13.47 205.45 13.43L205.45 13.43L205.45 13.43Q205.00 13.38 204.79 13.38L204.79 13.38L204.79 13.38Q204.53 13.38 204.11 13.41L204.11 13.41L204.11 13.41Q203.69 13.44 203.49 13.44L203.49 13.44L203.49 13.44Q203.06 13.44 202.94 13.40L202.94 13.40L202.94 13.40Q202.82 13.37 202.82 13.24L202.82 13.24L202.82 13.24Q202.82 13.15 202.93 13.08L202.93 13.08L202.93 13.08Q203.04 13.02 203.17 13.00L203.17 13.00L203.17 13.00Q203.29 12.98 203.41 12.87L203.41 12.87L203.41 12.87Q203.52 12.77 203.52 12.59L203.52 12.59L203.52 12.59Q203.52 12.28 203.17 11.33L203.17 11.33L203.17 11.33Q202.82 10.37 202.58 9.93L202.58 9.93L202.58 9.93Q202.45 9.69 202.01 9.69L202.01 9.69L202.01 9.69Q201.94 9.69 201.39 9.70L201.39 9.70L201.39 9.70Q200.84 9.72 200.31 9.72L200.31 9.72L199.57 9.72L199.57 9.72Q198.94 9.72 198.78 9.79L198.78 9.79L198.78 9.79Q198.62 9.86 198.49 10.12L198.49 10.12L198.49 10.12Q198.41 10.30 198.21 10.70L198.21 10.70L198.21 10.70Q198.02 11.10 197.95 11.26L197.95 11.26L197.95 11.26Q197.88 11.41 197.77 11.65L197.77 11.65L197.77 11.65Q197.67 11.90 197.63 12.05L197.63 12.05L197.63 12.05Q197.60 12.19 197.60 12.31L197.60 12.31L197.60 12.31Q197.60 12.63 197.76 12.80L197.76 12.80L197.76 12.80Q197.92 12.96 198.11 12.98L198.11 12.98L198.11 12.98Q198.31 13.01 198.47 13.06L198.47 13.06L198.47 13.06Q198.63 13.12 198.63 13.26L198.63 13.26L198.63 13.26Q198.63 13.36 198.59 13.40L198.59 13.40L198.59 13.40Q198.55 13.45 198.39 13.45L198.39 13.45L198.39 13.45Q198.31 13.45 197.91 13.45L197.91 13.45L197.91 13.45Q197.51 13.44 197.23 13.44L197.23 13.44L197.23 13.44Q196.92 13.44 196.54 13.47L196.54 13.47L196.54 13.47Q196.15 13.50 196.03 13.50L196.03 13.50L196.03 13.50Q195.62 13.50 195.62 13.33ZM199.14 8.71L199.14 8.71L199.14 8.71Q199.14 8.89 199.26 8.93L199.26 8.93L199.26 8.93Q199.39 8.97 199.85 8.97L199.85 8.97L200.28 8.97L201.61 8.96L201.61 8.96Q202.16 8.96 202.16 8.74L202.16 8.74L202.16 8.74Q202.16 8.55 201.47 7.01L201.47 7.01L201.47 7.01Q200.79 5.46 200.61 5.46L200.61 5.46L200.61 5.46Q200.48 5.46 199.81 7.01L199.81 7.01L199.81 7.01Q199.14 8.55 199.14 8.71ZM213.99 3.70L213.99 3.70L213.99 3.70Q213.99 3.47 214.40 3.47L214.40 3.47L216.72 3.47L216.72 3.47Q217.04 3.47 217.46 3.45L217.46 3.45L217.46 3.45Q217.88 3.43 218.12 3.43L218.12 3.43L218.12 3.43Q219.38 3.43 220.28 4.07L220.28 4.07L220.28 4.07Q221.17 4.70 221.17 5.78L221.17 5.78L221.17 5.78Q221.17 6.50 220.90 7.03L220.90 7.03L220.90 7.03Q220.63 7.57 220.30 7.81L220.30 7.81L220.30 7.81Q219.97 8.05 219.69 8.22L219.69 8.22L219.69 8.22Q219.42 8.40 219.42 8.46L219.42 8.46L219.42 8.46Q219.42 8.62 220.60 10.27L220.60 10.27L220.60 10.27Q221.77 11.91 222.21 12.38L222.21 12.38L222.21 12.38Q222.74 13.03 223.50 13.03L223.50 13.03L223.50 13.03Q223.69 13.03 223.69 13.20L223.69 13.20L223.69 13.20Q223.69 13.41 223.52 13.48L223.52 13.48L223.52 13.48Q223.36 13.55 222.66 13.55L222.66 13.55L222.66 13.55Q222.00 13.55 221.45 13.23L221.45 13.23L221.45 13.23Q220.75 12.82 219.09 10.09L219.09 10.09L219.09 10.09Q218.99 9.94 218.95 9.87L218.95 9.87L218.95 9.87Q218.27 8.78 217.91 8.78L217.91 8.78L217.62 8.78L216.76 8.78L216.76 8.78Q216.59 8.78 216.56 8.92L216.56 8.92L216.56 8.92Q216.52 9.06 216.52 9.77L216.52 9.77L216.52 9.77Q216.52 10.44 216.52 10.88L216.52 10.88L216.52 10.88Q216.52 11.31 216.53 11.43L216.53 11.43L216.53 11.43Q216.54 11.55 216.54 11.63L216.54 11.63L216.54 11.63Q216.54 11.70 216.54 11.75L216.54 11.75L216.54 11.75Q216.54 12.32 216.80 12.63L216.80 12.63L216.80 12.63Q217.07 12.95 217.40 13.00L217.40 13.00L217.40 13.00Q217.73 13.05 217.99 13.11L217.99 13.11L217.99 13.11Q218.26 13.17 218.26 13.31L218.26 13.31L218.26 13.31Q218.26 13.54 218.01 13.54L218.01 13.54L218.01 13.54Q217.99 13.54 217.04 13.49L217.04 13.49L217.04 13.49Q216.09 13.44 216.01 13.44L216.01 13.44L216.01 13.44Q215.60 13.44 215.04 13.47L215.04 13.47L215.04 13.47Q214.48 13.50 214.47 13.50L214.47 13.50L214.47 13.50Q214.17 13.50 214.17 13.27L214.17 13.27L214.17 13.27Q214.17 13.12 214.35 13.05L214.35 13.05L214.35 13.05Q214.54 12.99 214.76 12.96L214.76 12.96L214.76 12.96Q214.98 12.94 215.17 12.66L215.17 12.66L215.17 12.66Q215.35 12.38 215.35 11.86L215.35 11.86L215.35 11.86Q215.35 11.49 215.35 9.90L215.35 9.90L215.35 9.90Q215.36 8.30 215.36 7.45L215.36 7.45L215.36 7.45Q215.36 6.58 215.35 5.86L215.35 5.86L215.35 5.86Q215.35 5.14 215.35 5.08L215.35 5.08L215.35 5.08Q215.35 4.56 215.14 4.29L215.14 4.29L215.14 4.29Q214.93 4.02 214.67 3.98L214.67 3.98L214.67 3.98Q214.41 3.95 214.20 3.89L214.20 3.89L214.20 3.89Q213.99 3.84 213.99 3.70ZM216.52 5.54L216.52 5.94L216.52 5.94Q216.52 7.38 216.54 7.72L216.54 7.72L216.54 7.72Q216.55 8.06 216.64 8.12L216.64 8.12L216.64 8.12Q216.85 8.25 217.24 8.25L217.24 8.25L217.38 8.25L217.78 8.25L217.78 8.25Q218.97 8.25 219.48 7.70L219.48 7.70L219.48 7.70Q220.00 7.15 220.00 6.30L220.00 6.30L220.00 6.30Q220.00 5.43 219.32 4.72L219.32 4.72L219.32 4.72Q218.64 4.00 217.27 4.00L217.27 4.00L217.27 4.00Q216.75 4.00 216.64 4.28L216.64 4.28L216.64 4.28Q216.52 4.55 216.52 5.54L216.52 5.54ZM231.04 3.71L231.04 3.71L231.04 3.71Q231.04 3.50 231.29 3.50L231.29 3.50L231.29 3.50Q231.38 3.50 231.68 3.53L231.68 3.53L231.68 3.53Q231.98 3.56 232.04 3.56L232.04 3.56L232.04 3.56Q232.25 3.56 232.61 3.54L232.61 3.54L232.61 3.54Q232.97 3.53 233.09 3.53L233.09 3.53L233.09 3.53Q233.35 3.53 233.42 3.72L233.42 3.72L233.42 3.72Q233.59 4.09 234.02 5.03L234.02 5.03L234.02 5.03Q234.46 5.98 234.72 6.54L234.72 6.54L234.72 6.54Q234.98 7.10 235.38 7.97L235.38 7.97L235.38 7.97Q235.79 8.83 236.04 9.37L236.04 9.37L236.04 9.37Q236.29 9.91 236.56 10.46L236.56 10.46L236.56 10.46Q236.84 11.00 236.98 11.26L236.98 11.26L236.98 11.26Q237.13 11.52 237.17 11.52L237.17 11.52L237.17 11.52Q237.22 11.52 237.26 11.47L237.26 11.47L237.26 11.47Q237.31 11.42 237.36 11.34L237.36 11.34L237.36 11.34Q237.41 11.26 237.45 11.17L237.45 11.17L237.45 11.17Q237.48 11.09 237.54 10.96L237.54 10.96L237.54 10.96Q237.61 10.82 237.64 10.75L237.64 10.75L239.44 7.03L239.44 7.03Q239.75 6.40 239.99 5.89L239.99 5.89L239.99 5.89Q240.23 5.39 240.37 5.08L240.37 5.08L240.37 5.08Q240.51 4.77 240.60 4.55L240.60 4.55L240.60 4.55Q240.70 4.33 240.75 4.21L240.75 4.21L240.75 4.21Q240.80 4.10 240.82 4.04L240.82 4.04L240.82 4.04Q240.84 3.98 240.86 3.94L240.86 3.94L240.86 3.94Q240.87 3.91 240.88 3.88L240.88 3.88L240.88 3.88Q240.90 3.85 240.93 3.75L240.93 3.75L240.93 3.75Q240.97 3.65 241.00 3.62L241.00 3.62L241.00 3.62Q241.04 3.58 241.14 3.54L241.14 3.54L241.14 3.54Q241.25 3.50 241.42 3.50L241.42 3.50L241.42 3.50Q241.68 3.50 241.91 3.51L241.91 3.51L241.91 3.51Q242.14 3.53 242.62 3.53L242.62 3.53L242.62 3.53Q242.86 3.53 242.86 3.71L242.86 3.71L242.86 3.71Q242.86 3.85 242.77 3.91L242.77 3.91L242.77 3.91Q242.68 3.98 242.40 4.02L242.40 4.02L242.40 4.02Q242.05 4.06 241.91 4.37L241.91 4.37L241.91 4.37Q241.77 4.68 241.77 5.54L241.77 5.54L241.77 5.54Q241.77 7.43 241.85 8.97L241.85 8.97L241.85 8.97Q241.93 10.50 241.93 10.89L241.93 10.89L241.93 10.89Q241.93 12.29 242.16 12.68L242.16 12.68L242.16 12.68Q242.38 13.06 243.10 13.06L243.10 13.06L243.10 13.06Q243.19 13.06 243.27 13.13L243.27 13.13L243.27 13.13Q243.35 13.20 243.35 13.26L243.35 13.26L243.35 13.26Q243.35 13.34 243.33 13.38L243.33 13.38L243.33 13.38Q243.32 13.43 243.28 13.45L243.28 13.45L243.28 13.45Q243.24 13.48 243.19 13.48L243.19 13.48L243.19 13.48Q243.15 13.48 243.04 13.48L243.04 13.48L243.04 13.48Q242.62 13.48 242.21 13.45L242.21 13.45L242.21 13.45Q241.81 13.43 241.61 13.43L241.61 13.43L241.61 13.43Q241.22 13.43 240.80 13.46L240.80 13.46L240.80 13.46Q240.38 13.50 240.16 13.50L240.16 13.50L240.16 13.50Q239.90 13.50 239.90 13.30L239.90 13.30L239.90 13.30Q239.90 13.17 240.02 13.12L240.02 13.12L240.02 13.12Q240.13 13.06 240.27 13.05L240.27 13.05L240.27 13.05Q240.42 13.03 240.58 12.87L240.58 12.87L240.58 12.87Q240.74 12.71 240.81 12.39L240.81 12.39L240.81 12.39Q240.87 12.11 240.87 11.49L240.87 11.49L240.87 11.49Q240.87 11.05 240.85 10.42L240.85 10.42L240.85 10.42Q240.83 9.79 240.80 9.19L240.80 9.19L240.80 9.19Q240.77 8.60 240.74 8.07L240.74 8.07L240.74 8.07Q240.72 7.55 240.70 7.21L240.70 7.21L240.67 6.87L240.67 6.87Q240.67 6.27 240.55 6.27L240.55 6.27L240.55 6.27Q240.53 6.27 240.51 6.29L240.51 6.29L240.51 6.29Q240.48 6.30 240.46 6.33L240.46 6.33L240.46 6.33Q240.44 6.36 240.41 6.38L240.41 6.38L240.41 6.38Q240.38 6.41 240.35 6.47L240.35 6.47L240.35 6.47Q240.32 6.54 240.30 6.58L240.30 6.58L240.30 6.58Q240.27 6.62 240.23 6.70L240.23 6.70L240.23 6.70Q240.18 6.78 240.16 6.83L240.16 6.83L240.16 6.83Q240.13 6.89 240.08 6.99L240.08 6.99L240.08 6.99Q240.03 7.08 240.00 7.15L240.00 7.15L238.06 11.09L238.06 11.09Q237.72 11.77 237.34 12.56L237.34 12.56L237.34 12.56Q237.09 13.09 237.03 13.18L237.03 13.18L237.03 13.18Q236.98 13.27 236.89 13.27L236.89 13.27L236.89 13.27Q236.77 13.27 236.68 13.15L236.68 13.15L236.68 13.15Q236.60 13.03 236.43 12.63L236.43 12.63L236.43 12.63Q236.26 12.22 236.14 11.96L236.14 11.96L236.14 11.96Q233.58 6.75 233.51 6.65L233.51 6.65L233.51 6.65Q233.46 6.59 233.42 6.59L233.42 6.59L233.42 6.59Q233.31 6.59 233.31 7.15L233.31 7.15L233.31 7.15Q233.30 8.25 233.24 9.31L233.24 9.31L233.24 9.31Q233.18 10.37 233.18 10.85L233.18 10.85L233.18 11.48L233.18 11.48Q233.18 11.84 233.20 12.04L233.20 12.04L233.20 12.04Q233.23 12.24 233.32 12.49L233.32 12.49L233.32 12.49Q233.41 12.75 233.65 12.89L233.65 12.89L233.65 12.89Q233.88 13.03 234.26 13.08L234.26 13.08L234.26 13.08Q234.33 13.08 234.39 13.13L234.39 13.13L234.39 13.13Q234.46 13.17 234.46 13.23L234.46 13.23L234.46 13.23Q234.46 13.38 234.42 13.43L234.42 13.43L234.42 13.43Q234.37 13.48 234.25 13.48L234.25 13.48L234.25 13.48Q233.97 13.48 233.41 13.45L233.41 13.45L233.41 13.45Q232.85 13.43 232.79 13.43L232.79 13.43L232.79 13.43Q232.76 13.43 232.39 13.45L232.39 13.45L232.39 13.45Q232.01 13.47 231.64 13.47L231.64 13.47L231.64 13.47Q231.53 13.47 231.48 13.45L231.48 13.45L231.48 13.45Q231.43 13.44 231.39 13.39L231.39 13.39L231.39 13.39Q231.35 13.34 231.35 13.24L231.35 13.24L231.35 13.24Q231.35 13.13 231.48 13.09L231.48 13.09L231.48 13.09Q231.60 13.05 231.76 13.04L231.76 13.04L231.76 13.04Q231.92 13.03 232.12 12.82L232.12 12.82L232.12 12.82Q232.32 12.60 232.41 12.18L232.41 12.18L232.41 12.18Q232.48 11.87 232.58 9.74L232.58 9.74L232.58 9.74Q232.68 7.62 232.68 6.59L232.68 6.59L232.68 6.59Q232.68 5.19 232.41 4.66L232.41 4.66L232.41 4.66Q232.13 4.13 231.22 3.92L231.22 3.92L231.22 3.92Q231.04 3.88 231.04 3.71Z" transform="matrix(0.7326681149291675,0,0,0.7326681149291675,109.79485481068559,57.582193483168034)"/></g></svg>