<svg data-v-d3f97b9e="" xmlns="http://www.w3.org/2000/svg" viewBox="0 0 60 60"><!----><!----><!----><!----><g data-v-d3f97b9e="" id="a0fc1a73-03ba-4413-94fa-7bff8e94c213" transform="matrix(0.75,0,0,0.75,-7.5,-7.5)" stroke="none" fill="white"><path d="M50 10c-22.091 0-40 17.909-40 40s17.909 40 40 40 40-17.909 40-40-17.909-40-40-40zm0 4.969c19.306 0 35 15.725 35 35.031 0 19.306-15.694 35-35 35-19.306 0-35-15.694-35-35 0-19.306 15.694-35.031 35-35.031zM50 19c-12.725 0-23.62 7.621-28.406 18.563l14.781 2.343C39.477 35.724 44.411 33 50 33s10.555 2.724 13.656 6.906l14.75-2.343C73.628 26.62 62.724 19 50 19zm0 18c-7.203 0-13 5.797-13 13s5.797 13 13 13 13-5.797 13-13-5.797-13-13-13zm0 6c3.842 0 7 3.158 7 7s-3.158 7-7 7-7-3.158-7-7 3.158-7 7-7zm0 4c-1.68 0-3 1.32-3 3s1.32 3 3 3 3-1.32 3-3-1.32-3-3-3zm30.906 5.25l-15.781 5.531c-1.517 2.928-3.892 5.34-6.75 6.969L56.75 80.219C69.92 77.3 79.915 66.054 80.906 52.25zm-61.812.062c.992 13.415 10.48 24.43 23.125 27.688L40.53 64.062c-2.337-1.581-4.278-3.705-5.593-6.219z" overflow="visible" color="#000"></path></g><!----></svg>